<svg
   xmlns="http://www.w3.org/2000/svg"
   xmlns:xlink="http://www.w3.org/1999/xlink"
   width="487"
   height="487"
   viewBox="-142.5 -142.5 487 487">
  <circle
     fill="#DD4814"
     cx="101"
     cy="101"
     r="243.5" />
  <g
     id="U"
     fill="#FFFFFF"
     transform="matrix(1.7180313,0,0,1.7180313,101,101)">
    <circle
       cx="-96.377197"
       r="18.921499"
       cy="0" />
    <path
       d="M -45.6059,68.395 C -62.1655,57.3316 -74.4844,40.4175 -79.6011,20.6065 -73.623,15.7354 -69.8047,8.3164 -69.8047,0 c 0,-8.3164 -3.8183,-15.7354 -9.7964,-20.6065 5.1167,-19.811 17.4356,-36.7251 33.9952,-47.7885 l 13.8344,23.1738 C -45.9824,-35.2197 -55.2754,-18.7026 -55.2754,0 c 0,18.7026 9.293,35.2197 23.5039,45.2212 z" />
  </g>
  <use
     xlink:href="#U"
     transform="rotate(120,101,101)"
     x="0"
     y="0"
     width="100%"
     height="100%"
     fill="#FFFFFF" />
  <use
     xlink:href="#U"
     transform="rotate(-120,101,101)"
     x="0"
     y="0"
     width="100%"
     height="100%"
     fill="#FFFFFF" />
</svg>
